<?xml version="1.0" encoding="UTF-8"?>
<svg width="70px" height="17px" viewBox="0 0 70 17" version="1.1" xmlns="http://www.w3.org/2000/svg" xmlns:xlink="http://www.w3.org/1999/xlink">
    <!-- Generator: Sketch 52.5 (67469) - http://www.bohemiancoding.com/sketch -->
    <title>icon-appdownload</title>
    <desc>Created with Sketch.</desc>
    <g id="Page-1" stroke="none" stroke-width="1" fill="none" fill-rule="evenodd">
        <g id="简历" transform="translate(-1379.000000, -24.000000)" fill="#6AA2E4">
            <g id="head">
                <g id="icon-appdownload" transform="translate(1379.000000, 24.000000)">
                    <g id="手机充值" fill-rule="nonzero">
                        <path d="M1.27173873,1.33829897 L1.27173873,15.661701 C1.27173873,15.6978713 1.30706485,15.7340414 1.37771692,15.7340414 L11.692935,15.7340414 C11.7282611,15.7340414 11.7989132,15.6978711 11.7989132,15.661701 L11.7989132,1.33829897 C11.7989132,1.30212867 11.763587,1.26595857 11.692935,1.26595857 L1.34239638,1.26595857 C1.30707026,1.26595857 1.27174431,1.30212886 1.27174431,1.33829897 L1.27173873,1.33829897 Z M0.0353261275,1.33829897 C0.0353261275,0.614894997 0.600542304,0 1.34239098,0 L11.657609,0 C12.3994558,0 13,0.614893089 13,1.33829897 L13,15.661701 C13,16.4212753 12.3994577,17 11.657609,17 L1.34239098,17 C0.600544167,17 0,16.3851069 0,15.661701 L0,1.33829897 L0.0353261275,1.33829897 Z M9.92662319,3.8340359 L3.10869735,3.8340359 L3.10869735,11.8638297 L9.92662319,11.8638297 L9.92662319,3.8340359 Z M10.6331439,12.5872356 L2.40217294,12.5872356 L2.40217294,3.11063002 L10.6331439,3.11063002 L10.6331439,12.5872356 Z M6.60596907,15.1553207 C6.07607902,15.1553207 5.65216549,14.7212772 5.65216549,14.1787247 C5.65216549,13.6361722 6.07607902,13.2021287 6.60596907,13.2021287 C7.13585912,13.2021287 7.55977265,13.6361722 7.55977265,14.1787247 C7.55977265,14.7212772 7.13585912,15.1553207 6.60596907,15.1553207 Z M5.75814387,1.91702749 L7.45379426,1.91702749 C7.59509859,1.91702749 7.73640328,2.06170828 7.73640328,2.24256013 C7.73640328,2.42341122 7.59509896,2.56809278 7.45379426,2.56809278 L5.75814387,2.56809278 C5.61683955,2.56809278 5.47553485,2.42341198 5.47553485,2.24256013 C5.47553483,2.06170904 5.61683918,1.91702749 5.75814387,1.91702749 Z" id="Shape"></path>
                    </g>
                    <text id="APP下载" font-family="MicrosoftYaHei, Microsoft YaHei" font-size="13" font-weight="normal">
                        <tspan x="19" y="14">APP下载</tspan>
                    </text>
                </g>
            </g>
        </g>
    </g>
</svg>