<?xml version="1.0" encoding="UTF-8"?>
<svg width="26px" height="20px" viewBox="0 0 26 20" version="1.1" xmlns="http://www.w3.org/2000/svg" xmlns:xlink="http://www.w3.org/1999/xlink">
    <!-- Generator: Sketch 52.5 (67469) - http://www.bohemiancoding.com/sketch -->
    <title>icon-hot</title>
    <desc>Created with Sketch.</desc>
    <g id="Page-1" stroke="none" stroke-width="1" fill="none" fill-rule="evenodd">
        <g id="简历" transform="translate(-710.000000, -11.000000)">
            <g id="head">
                <g id="icon-hot" transform="translate(710.000000, 11.000000)">
                    <path d="M2,-1.49213975e-12 L24,-1.5372148e-12 C25.1045695,-1.53741771e-12 26,0.8954305 26,2 L26,14 C26,15.1045695 25.1045695,16 24,16 L15,16 C13,18.2326231 10.6666667,19.538299 8,19.9170275 C9.33333333,18.2049656 10,16.8992898 10,16 L2,16 C0.8954305,16 4.70662936e-14,15.1045695 6.21724894e-15,14 L-1.10134124e-13,2 C-1.23513634e-13,0.8954305 0.8954305,-1.50196084e-12 2,-1.51589852e-12 Z" id="Rectangle" fill="#ED364D" fill-rule="nonzero"></path>
                    <text id="hot" font-family="HelveticaNeue-Medium, Helvetica Neue" font-size="12" font-weight="400" fill="#FFFFFF">
                        <tspan x="4" y="12">hot</tspan>
                    </text>
                </g>
            </g>
        </g>
    </g>
</svg>